<mxfile host="app.diagrams.net" modified="2022-04-07T14:02:43.813Z" agent="5.0 (Windows NT 10.0; Win64; x64) AppleWebKit/537.36 (KHTML, like Gecko) Chrome/100.0.4896.75 Safari/537.36" etag="5Y22NXI3MSJ7CtInEN02" version="17.4.0" type="github">
  <diagram id="yCnUy8qV7EoQF44rxcWX" name="Page-1">
    <mxGraphModel dx="1529" dy="761" grid="1" gridSize="10" guides="1" tooltips="1" connect="1" arrows="1" fold="1" page="1" pageScale="1" pageWidth="827" pageHeight="1169" math="0" shadow="0">
      <root>
        <mxCell id="0" />
        <mxCell id="1" parent="0" />
        <mxCell id="4w5tyJyfuPNuH4oswGzw-1" value="Mensajero" style="swimlane;fontStyle=1;align=center;verticalAlign=top;childLayout=stackLayout;horizontal=1;startSize=26;horizontalStack=0;resizeParent=1;resizeParentMax=0;resizeLast=0;collapsible=1;marginBottom=0;" parent="1" vertex="1">
          <mxGeometry x="-10" y="350" width="280" height="60" as="geometry" />
        </mxCell>
        <mxCell id="4w5tyJyfuPNuH4oswGzw-3" value="" style="line;strokeWidth=1;fillColor=none;align=left;verticalAlign=middle;spacingTop=-1;spacingLeft=3;spacingRight=3;rotatable=0;labelPosition=right;points=[];portConstraint=eastwest;" parent="4w5tyJyfuPNuH4oswGzw-1" vertex="1">
          <mxGeometry y="26" width="280" height="8" as="geometry" />
        </mxCell>
        <mxCell id="4w5tyJyfuPNuH4oswGzw-4" value="+ enviar(mensaje: String)" style="text;strokeColor=none;fillColor=none;align=left;verticalAlign=top;spacingLeft=4;spacingRight=4;overflow=hidden;rotatable=0;points=[[0,0.5],[1,0.5]];portConstraint=eastwest;" parent="4w5tyJyfuPNuH4oswGzw-1" vertex="1">
          <mxGeometry y="34" width="280" height="26" as="geometry" />
        </mxCell>
        <mxCell id="4w5tyJyfuPNuH4oswGzw-8" value="Conexión" style="swimlane;fontStyle=1;align=center;verticalAlign=top;childLayout=stackLayout;horizontal=1;startSize=26;horizontalStack=0;resizeParent=1;resizeParentMax=0;resizeLast=0;collapsible=1;marginBottom=0;" parent="1" vertex="1">
          <mxGeometry x="420" y="290" width="160" height="60" as="geometry" />
        </mxCell>
        <mxCell id="4w5tyJyfuPNuH4oswGzw-10" value="" style="line;strokeWidth=1;fillColor=none;align=left;verticalAlign=middle;spacingTop=-1;spacingLeft=3;spacingRight=3;rotatable=0;labelPosition=right;points=[];portConstraint=eastwest;" parent="4w5tyJyfuPNuH4oswGzw-8" vertex="1">
          <mxGeometry y="26" width="160" height="8" as="geometry" />
        </mxCell>
        <mxCell id="4w5tyJyfuPNuH4oswGzw-11" value="+ enviar (mensaje: String)" style="text;strokeColor=none;fillColor=none;align=left;verticalAlign=top;spacingLeft=4;spacingRight=4;overflow=hidden;rotatable=0;points=[[0,0.5],[1,0.5]];portConstraint=eastwest;" parent="4w5tyJyfuPNuH4oswGzw-8" vertex="1">
          <mxGeometry y="34" width="160" height="26" as="geometry" />
        </mxCell>
        <mxCell id="4w5tyJyfuPNuH4oswGzw-13" value="" style="endArrow=open;endFill=1;endSize=12;html=1;rounded=0;exitX=1;exitY=0.5;exitDx=0;exitDy=0;entryX=0;entryY=0.5;entryDx=0;entryDy=0;entryPerimeter=0;" parent="1" source="4w5tyJyfuPNuH4oswGzw-1" target="4w5tyJyfuPNuH4oswGzw-10" edge="1">
          <mxGeometry width="160" relative="1" as="geometry">
            <mxPoint x="250" y="490" as="sourcePoint" />
            <mxPoint x="410" y="490" as="targetPoint" />
          </mxGeometry>
        </mxCell>
        <mxCell id="4w5tyJyfuPNuH4oswGzw-22" style="edgeStyle=orthogonalEdgeStyle;rounded=0;orthogonalLoop=1;jettySize=auto;html=1;" parent="1" source="4w5tyJyfuPNuH4oswGzw-14" target="4w5tyJyfuPNuH4oswGzw-18" edge="1">
          <mxGeometry relative="1" as="geometry" />
        </mxCell>
        <mxCell id="4w5tyJyfuPNuH4oswGzw-14" value="ConexiónSegura" style="swimlane;fontStyle=1;align=center;verticalAlign=top;childLayout=stackLayout;horizontal=1;startSize=26;horizontalStack=0;resizeParent=1;resizeParentMax=0;resizeLast=0;collapsible=1;marginBottom=0;" parent="1" vertex="1">
          <mxGeometry x="420" y="430" width="160" height="60" as="geometry" />
        </mxCell>
        <mxCell id="4w5tyJyfuPNuH4oswGzw-15" value="" style="line;strokeWidth=1;fillColor=none;align=left;verticalAlign=middle;spacingTop=-1;spacingLeft=3;spacingRight=3;rotatable=0;labelPosition=right;points=[];portConstraint=eastwest;" parent="4w5tyJyfuPNuH4oswGzw-14" vertex="1">
          <mxGeometry y="26" width="160" height="8" as="geometry" />
        </mxCell>
        <mxCell id="4w5tyJyfuPNuH4oswGzw-16" value="+ enviar(mensaje: String)" style="text;strokeColor=none;fillColor=none;align=left;verticalAlign=top;spacingLeft=4;spacingRight=4;overflow=hidden;rotatable=0;points=[[0,0.5],[1,0.5]];portConstraint=eastwest;" parent="4w5tyJyfuPNuH4oswGzw-14" vertex="1">
          <mxGeometry y="34" width="160" height="26" as="geometry" />
        </mxCell>
        <mxCell id="4w5tyJyfuPNuH4oswGzw-17" value="" style="endArrow=block;endSize=16;endFill=0;html=1;rounded=0;entryX=0.494;entryY=1.077;entryDx=0;entryDy=0;entryPerimeter=0;exitX=0.5;exitY=0;exitDx=0;exitDy=0;" parent="1" source="4w5tyJyfuPNuH4oswGzw-14" target="4w5tyJyfuPNuH4oswGzw-11" edge="1">
          <mxGeometry width="160" relative="1" as="geometry">
            <mxPoint x="250" y="490" as="sourcePoint" />
            <mxPoint x="410" y="490" as="targetPoint" />
          </mxGeometry>
        </mxCell>
        <mxCell id="4w5tyJyfuPNuH4oswGzw-18" value="&lt;&lt;interface&gt;&gt; &#xa;Encriptador" style="swimlane;fontStyle=1;align=center;verticalAlign=top;childLayout=stackLayout;horizontal=1;startSize=40;horizontalStack=0;resizeParent=1;resizeParentMax=0;resizeLast=0;collapsible=1;marginBottom=0;" parent="1" vertex="1">
          <mxGeometry x="365" y="580" width="270" height="74" as="geometry" />
        </mxCell>
        <mxCell id="4w5tyJyfuPNuH4oswGzw-20" value="" style="line;strokeWidth=1;fillColor=none;align=left;verticalAlign=middle;spacingTop=-1;spacingLeft=3;spacingRight=3;rotatable=0;labelPosition=right;points=[];portConstraint=eastwest;" parent="4w5tyJyfuPNuH4oswGzw-18" vertex="1">
          <mxGeometry y="40" width="270" height="8" as="geometry" />
        </mxCell>
        <mxCell id="4w5tyJyfuPNuH4oswGzw-21" value="+ encriptar(mensaje: String): String" style="text;strokeColor=none;fillColor=none;align=left;verticalAlign=top;spacingLeft=4;spacingRight=4;overflow=hidden;rotatable=0;points=[[0,0.5],[1,0.5]];portConstraint=eastwest;" parent="4w5tyJyfuPNuH4oswGzw-18" vertex="1">
          <mxGeometry y="48" width="270" height="26" as="geometry" />
        </mxCell>
        <mxCell id="4w5tyJyfuPNuH4oswGzw-23" value="RSA" style="swimlane;fontStyle=1;align=center;verticalAlign=top;childLayout=stackLayout;horizontal=1;startSize=40;horizontalStack=0;resizeParent=1;resizeParentMax=0;resizeLast=0;collapsible=1;marginBottom=0;" parent="1" vertex="1">
          <mxGeometry x="100" y="750" width="270" height="92" as="geometry" />
        </mxCell>
        <mxCell id="4w5tyJyfuPNuH4oswGzw-24" value="" style="line;strokeWidth=1;fillColor=none;align=left;verticalAlign=middle;spacingTop=-1;spacingLeft=3;spacingRight=3;rotatable=0;labelPosition=right;points=[];portConstraint=eastwest;" parent="4w5tyJyfuPNuH4oswGzw-23" vertex="1">
          <mxGeometry y="40" width="270" height="8" as="geometry" />
        </mxCell>
        <mxCell id="4w5tyJyfuPNuH4oswGzw-25" value="+ encriptar(mensaje:String): String" style="text;strokeColor=none;fillColor=none;align=left;verticalAlign=top;spacingLeft=4;spacingRight=4;overflow=hidden;rotatable=0;points=[[0,0.5],[1,0.5]];portConstraint=eastwest;" parent="4w5tyJyfuPNuH4oswGzw-23" vertex="1">
          <mxGeometry y="48" width="270" height="44" as="geometry" />
        </mxCell>
        <mxCell id="4w5tyJyfuPNuH4oswGzw-26" value="Blowfish" style="swimlane;fontStyle=1;align=center;verticalAlign=top;childLayout=stackLayout;horizontal=1;startSize=40;horizontalStack=0;resizeParent=1;resizeParentMax=0;resizeLast=0;collapsible=1;marginBottom=0;" parent="1" vertex="1">
          <mxGeometry x="414" y="750" width="270" height="92" as="geometry" />
        </mxCell>
        <mxCell id="4w5tyJyfuPNuH4oswGzw-27" value="" style="line;strokeWidth=1;fillColor=none;align=left;verticalAlign=middle;spacingTop=-1;spacingLeft=3;spacingRight=3;rotatable=0;labelPosition=right;points=[];portConstraint=eastwest;" parent="4w5tyJyfuPNuH4oswGzw-26" vertex="1">
          <mxGeometry y="40" width="270" height="8" as="geometry" />
        </mxCell>
        <mxCell id="4w5tyJyfuPNuH4oswGzw-28" value="+ encriptar(mensaje:String): String" style="text;strokeColor=none;fillColor=none;align=left;verticalAlign=top;spacingLeft=4;spacingRight=4;overflow=hidden;rotatable=0;points=[[0,0.5],[1,0.5]];portConstraint=eastwest;" parent="4w5tyJyfuPNuH4oswGzw-26" vertex="1">
          <mxGeometry y="48" width="270" height="44" as="geometry" />
        </mxCell>
        <mxCell id="4w5tyJyfuPNuH4oswGzw-29" value="RC4" style="swimlane;fontStyle=1;align=center;verticalAlign=top;childLayout=stackLayout;horizontal=1;startSize=40;horizontalStack=0;resizeParent=1;resizeParentMax=0;resizeLast=0;collapsible=1;marginBottom=0;" parent="1" vertex="1">
          <mxGeometry x="710" y="750" width="270" height="92" as="geometry" />
        </mxCell>
        <mxCell id="4w5tyJyfuPNuH4oswGzw-30" value="" style="line;strokeWidth=1;fillColor=none;align=left;verticalAlign=middle;spacingTop=-1;spacingLeft=3;spacingRight=3;rotatable=0;labelPosition=right;points=[];portConstraint=eastwest;" parent="4w5tyJyfuPNuH4oswGzw-29" vertex="1">
          <mxGeometry y="40" width="270" height="8" as="geometry" />
        </mxCell>
        <mxCell id="4w5tyJyfuPNuH4oswGzw-31" value="+ encriptar(mensaje:String): String" style="text;strokeColor=none;fillColor=none;align=left;verticalAlign=top;spacingLeft=4;spacingRight=4;overflow=hidden;rotatable=0;points=[[0,0.5],[1,0.5]];portConstraint=eastwest;" parent="4w5tyJyfuPNuH4oswGzw-29" vertex="1">
          <mxGeometry y="48" width="270" height="44" as="geometry" />
        </mxCell>
        <mxCell id="4w5tyJyfuPNuH4oswGzw-32" value="" style="endArrow=block;endSize=16;endFill=0;html=1;rounded=0;entryX=0.5;entryY=1.231;entryDx=0;entryDy=0;entryPerimeter=0;exitX=0.33;exitY=-0.022;exitDx=0;exitDy=0;exitPerimeter=0;" parent="1" source="4w5tyJyfuPNuH4oswGzw-26" target="4w5tyJyfuPNuH4oswGzw-21" edge="1">
          <mxGeometry width="160" relative="1" as="geometry">
            <mxPoint x="510" y="440" as="sourcePoint" />
            <mxPoint x="509.03999999999996" y="362.00199999999995" as="targetPoint" />
          </mxGeometry>
        </mxCell>
        <mxCell id="4w5tyJyfuPNuH4oswGzw-35" value="" style="endArrow=none;html=1;rounded=0;" parent="1" source="4w5tyJyfuPNuH4oswGzw-23" edge="1">
          <mxGeometry width="50" height="50" relative="1" as="geometry">
            <mxPoint x="350" y="520" as="sourcePoint" />
            <mxPoint x="500" y="690" as="targetPoint" />
          </mxGeometry>
        </mxCell>
        <mxCell id="4w5tyJyfuPNuH4oswGzw-36" value="" style="endArrow=none;html=1;rounded=0;" parent="1" source="4w5tyJyfuPNuH4oswGzw-29" edge="1">
          <mxGeometry width="50" height="50" relative="1" as="geometry">
            <mxPoint x="360" y="760" as="sourcePoint" />
            <mxPoint x="500" y="690" as="targetPoint" />
          </mxGeometry>
        </mxCell>
      </root>
    </mxGraphModel>
  </diagram>
</mxfile>
